<svg width="22" height="22" viewBox="0 0 22 22" fill="none" xmlns="http://www.w3.org/2000/svg">
<g clip-path="url(#clip0_18274_23643)">
<mask id="mask0_18274_23643" style="mask-type:luminance" maskUnits="userSpaceOnUse" x="0" y="0" width="22" height="22">
<path d="M22 0H0V22H22V0Z" fill="white"/>
</mask>
<g mask="url(#mask0_18274_23643)">
<path d="M11 22C17.0751 22 22 17.0751 22 11C22 4.92487 17.0751 0 11 0C4.92487 0 0 4.92487 0 11C0 17.0751 4.92487 22 11 22Z" fill="#FCFCFC"/>
<path d="M6.5134 7.99999H15.4866C15.7706 7.99999 16 7.77603 16 7.49999C16 7.22409 15.7707 7 15.4866 7H6.5134C6.22994 7 6 7.22396 6 7.49999C6 7.77603 6.22994 7.99999 6.5134 7.99999ZM15.4865 10.5H6.5134C6.22929 10.5 6 10.7239 6 10.9999C6 11.276 6.22929 11.4999 6.5134 11.4999H15.4866C15.7706 11.4999 16 11.276 16 10.9999C15.9999 10.7239 15.7691 10.5 15.4865 10.5ZM15.4865 14.0412H6.5134C6.23008 14.0412 6 14.2651 6 14.5412C6 14.8172 6.22994 15.0412 6.5134 15.0412H15.4866C15.7706 15.0412 16 14.8172 16 14.5412C15.9999 14.2653 15.7706 14.0412 15.4865 14.0412Z" fill="black"/>
</g>
</g>
<defs>
<clipPath id="clip0_18274_23643">
<rect width="22" height="22" fill="white"/>
</clipPath>
</defs>
</svg>
